# xmcd
# Track frame offsets:
# 150
# 15095
# 30583
# 46898
# 58865
# 75419
# 92933
# 101901
# 118141
# 134534
# 146419
# 167048
# 186339
# 196657
#
# Disc length: 2844 seconds
# Revision: 0
# Processed by: cddbd v1.5.2PL0 Copyright (c) Steve Scherf et al.
# Submitted via: VisiTrax 2.10.3.257 - For more info visit www.synapsa.com
#
DISCID=b80b1a0e
DTITLE=Marty Stuart - Compadres - An Anthology Of Duets
DYEAR=2007
DGENRE=Country
TTITLE0=with Merle Haggard - Farmer's Blues
TTITLE1=with Johnny Cash - Doin' My Time
TTITLE2=with lester Flatt and The Nashville Grass - Rawhide
TTITLE3=with Travis Tritt - The Whiskey Ain't Workin'
TTITLE4=with Loretta Lynn - Will You Visit me On Sunday
TTITLE5=with Steve earle - Crying, Waiting, Hoping
TTITLE6=with Earl Scruggs - Mr. John Henry, The Steel Driving Man
TTITLE7=with Connie Smith - Hearts Like Ours
TTITLE8=with The Staple Singers - The Weight
TTITLE9=with George Jones - One Woman Man
TTITLE10=with B. B. King - Confessin' The Blues
TTITLE11=with His Fabulous Superlatives and The Old Crow Medicine Show - I Can Se
TTITLE11=e For Miles
TTITLE12=with Del McCoury - Let Us Travel, Travel On
TTITLE13=with His Favulous Superlatives and Miss Mavis Staples - Move Along train
EXTD=
EXTT0=
EXTT1=
EXTT2=
EXTT3=
EXTT4=
EXTT5=
EXTT6=
EXTT7=
EXTT8=
EXTT9=
EXTT10=
EXTT11=
EXTT12=
EXTT13=
PLAYORDER=
